<svg width="18" height="16" viewBox="0 0 18 16" fill="none" xmlns="http://www.w3.org/2000/svg">
<path fill-rule="evenodd" clip-rule="evenodd" d="M0.130786 0.0944343L0.0168158 0.188819V2.63625C0.0168158 4.81945 0.0252148 5.09223 0.0944853 5.16311C0.210097 5.2814 1.70697 5.27241 1.83634 5.15269C1.91695 5.07801 1.92356 4.95414 1.92356 3.52375V1.97561H3.44061H4.95771L5.05773 1.84547C5.14901 1.72678 5.15779 1.64929 5.15779 0.965036C5.15779 0.244679 5.15335 0.210501 5.04609 0.107374C4.93454 0.000197358 4.93058 0 2.58953 0C0.352837 0 0.239495 0.00434647 0.130786 0.0944343ZM12.9814 0.130143C12.8901 0.248828 12.8813 0.326321 12.8813 1.01057C12.8813 2.06728 12.7172 1.97561 14.6101 1.97561H16.1156V3.52375C16.1156 4.95414 16.1222 5.07801 16.2028 5.15269C16.2756 5.22006 16.4206 5.23423 17.0785 5.23803C17.6785 5.24149 17.8825 5.22677 17.9318 5.1763C17.9841 5.12271 17.9971 4.63779 17.9993 2.64144C18.002 0.173359 18.002 0.172866 17.8982 0.0864329C17.8025 0.00676646 17.6105 0 15.4379 0H13.0814L12.9814 0.130143ZM4.53026 0.987805V1.33354H3.00969C1.55346 1.33354 1.48501 1.33773 1.39257 1.43232C1.30018 1.52685 1.29603 1.59694 1.29603 3.0622V4.59329H0.961887H0.627748L0.622293 2.65236C0.6193 1.58483 0.632092 0.69581 0.650725 0.676745C0.669358 0.65768 1.54984 0.642073 2.60743 0.642073H4.53026V0.987805ZM17.3838 2.63003L17.3948 4.59329H17.0689H16.7431V3.0622C16.7431 1.59694 16.7389 1.52685 16.6466 1.43232C16.5541 1.33773 16.4857 1.33354 15.0294 1.33354H13.5089V0.987262V0.640938L15.4409 0.653877L17.3729 0.666768L17.3838 2.63003ZM0.234426 10.5642C-0.00625853 10.6327 -0.00900961 10.6649 0.00436177 13.2286L0.0168158 15.6161L0.130786 15.7105C0.239495 15.8005 0.353272 15.8049 2.60121 15.8049H4.95771L5.05773 15.6747C5.14901 15.5561 5.15779 15.4786 5.15779 14.7943C5.15779 13.7376 5.32197 13.8293 3.42898 13.8293H1.92356V12.2771V10.7248L1.79637 10.6225C1.68105 10.5297 1.60791 10.5206 1.01195 10.5251C0.650484 10.5278 0.300607 10.5454 0.234426 10.5642ZM16.248 10.6183L16.1156 10.7248V12.2771V13.8293H14.6034H13.0913L12.9863 13.9436C12.8881 14.0505 12.8813 14.106 12.8813 14.8013C12.8813 15.4785 12.8902 15.5562 12.9814 15.6747L13.0814 15.8049H15.4379C17.6105 15.8049 17.8025 15.7981 17.8982 15.7184C18.002 15.632 18.002 15.6315 17.9993 13.1634C17.9969 11.0253 17.9867 10.6848 17.9233 10.6198C17.8658 10.5609 17.6922 10.5413 17.1152 10.5283C16.4225 10.5127 16.3728 10.5178 16.248 10.6183ZM1.29603 12.718C1.29603 14.2079 1.30013 14.278 1.39257 14.3726C1.48501 14.4671 1.55346 14.4713 3.00969 14.4713H4.53026V14.8176V15.1639L2.58731 15.151L0.644353 15.1381L0.636678 13.1876C0.63243 12.1148 0.639139 11.2202 0.651594 11.1996C0.664 11.179 0.814078 11.1622 0.985106 11.1622H1.29603V12.718ZM17.3731 13.1625L17.373 15.1381L15.4409 15.151L13.5089 15.1639V14.8176V14.4713H15.0294C16.4857 14.4713 16.5541 14.4671 16.6466 14.3726C16.739 14.278 16.7431 14.2079 16.7431 12.7157V11.1577L17.0582 11.1723L17.3732 11.1869L17.3731 13.1625Z" fill="white"/>
</svg>
