<svg width="236" height="236" viewBox="0 0 236 236" fill="none" xmlns="http://www.w3.org/2000/svg">
<path fill-rule="evenodd" clip-rule="evenodd" d="M64.5939 30.3329C48.7644 38.5901 17.8845 57.8812 16.5729 60.3335C15.7082 61.9501 15 76.0816 15 91.7361V120.201L19.4365 124.608C25.709 130.841 66.767 153.833 71.6246 153.833C73.846 153.833 83.6112 149.254 93.3264 143.656C103.042 138.059 122.094 127.059 135.665 119.212C151.579 110.012 161.947 104.992 164.864 105.074C170.315 105.229 196.56 120.393 198.88 124.728C199.785 126.422 200.527 136.078 200.527 146.186C200.527 163.195 200.256 164.809 196.897 167.85C190.225 173.89 169.643 185.024 165.15 185.024C159.832 185.024 132.01 169.473 130.222 165.501C129.53 163.963 128.549 158.171 128.044 152.628L127.123 142.549L118.25 147.88L109.377 153.212L108.893 163.362C108.561 170.33 109.161 174.662 110.811 177.18C113.846 181.812 160.032 208.688 164.959 208.688C169.646 208.688 215.944 182.022 219.112 177.498C220.995 174.808 221.5 168.224 221.5 146.32C221.5 131.046 220.832 116.792 220.014 114.643C218.18 109.814 171.466 82.3076 165.101 82.3076C161.305 82.3076 126.362 101.363 89.3481 123.621C81.8818 128.109 73.8009 131.783 71.3906 131.783C65.6086 131.783 39.0573 115.43 36.4405 110.258C33.7705 104.982 33.7415 76.8931 36.4002 71.6642C38.7669 67.008 65.7958 50.6452 71.1858 50.6049C76.7548 50.5646 104.527 67.6695 106.726 72.4951C107.739 74.7215 108.57 80.5619 108.57 85.4746C108.57 90.3873 109.122 94.1658 109.796 93.869C110.471 93.5737 114.827 91.2198 119.476 88.6384L127.93 83.9451V72.9984C127.93 63.9039 127.315 61.3757 124.3 58.057C119.566 52.8507 76.5677 27.9871 72.3183 28C70.5178 28.0065 67.0412 29.0551 64.5939 30.3329Z" fill="white"/>
</svg>
